# xmcd CD database file
#
# Track frame offsets:
#	182
#	32385
#	76472
#	107542
#	133667
#	173315
#	205570
#	222600
#
# Disc length: 3611 seconds
#
# Revision: 0
# Processed by: cddbd v1.4PL0 Copyright (c) Steve Scherf et al.
# Submitted via: CDex 1.50
#
DISCID=5e0e1908
DTITLE=Wild Bill Davis and Danny Doriz - Live from the Caveau de la Huchette - Paris 1977
DYEAR=1997
DGENRE=Jazz
TTITLE0=Struttin' With Some Barbecue
TTITLE1=Lullaby Of Birdland
TTITLE2=Indiana
TTITLE3=Body And Soul
TTITLE4=Wild Bill Davis Blues At The Huchette
TTITLE5=Gone With The Wind
TTITLE6=Lil' Darlin
TTITLE7=Jumpin' With Symphony Sid
EXTD=YEAR: 1997
EXTT0=
EXTT1=
EXTT2=
EXTT3=
EXTT4=
EXTT5=
EXTT6=
EXTT7=
PLAYORDER=
